# xmcd
#
# Track frame offsets:
#	300
#	18164
#	33707
#	51322
#	65097
#	83490
#	101842
#	116240
#	129287
#	143707
#	160531
#	177318
#	192445
#
# Disc length: 2795 seconds
#
# Revision: 0
# Processed by: cddbd v1.5.2PL0 Copyright (c) Steve Scherf et al.
# Submitted via: audiograbber 1.83.01
#
DISCID=b30ae70d
DTITLE=Collin Raye - The Best Of Collin Raye
DYEAR=1900
DGENRE=Country
TTITLE0=Little Rock
TTITLE1=I Think About You
TTITLE2=Not That Different
TTITLE3=That's My Story
TTITLE4=If I Were You
TTITLE5=One Boy, One Girl
TTITLE6=In This Life
TTITLE7=My Kind Of Girl
TTITLE8=That Was A River
TTITLE9=What The Heart Wants - (Previously Unreleased)
TTITLE10=Gift, The - (Previously Unreleased)
TTITLE11=Open Arms - (Previously Unreleased)
TTITLE12=Love, Me
EXTD=Created from content purchased via Rhapsody music service.
EXTT0=
EXTT1=
EXTT2=
EXTT3=
EXTT4=
EXTT5=
EXTT6=
EXTT7=
EXTT8=
EXTT9=
EXTT10=
EXTT11=
EXTT12=
PLAYORDER=
